<svg xmlns="http://www.w3.org/2000/svg" xmlns:xlink="http://www.w3.org/1999/xlink" version="1.1" id="Capa_1" x="0px" y="0px" viewBox="0 0 447.68 447.68" style="enable-background:new 0 0 447.68 447.68;" xml:space="preserve" width="512" height="512" class="hovered-paths"><g><g>
	<path style="fill:#B9B9B9" d="M447.68,300.45v61.76c0.004,17.493-14.173,31.676-31.666,31.68c-0.001,0-0.003,0-0.004,0h-26.4   c-17.496-0.001-31.679-14.184-31.68-31.68v-30.09h58.08C433.501,332.119,447.679,317.941,447.68,300.45z" data-original="#D4E1F4" class="" data-old_color="#D4E1F4"></path>
	<path style="fill:#D10101" d="M447.68,294.53v7.92c-0.001,17.491-14.179,31.669-31.67,31.67H31.67   C14.179,334.12,0.001,319.941,0,302.45v-78.84c0-13.953,6.132-27.201,16.77-36.23l16.49-15.33h387.5v0.53l12.03,12.86   c9.507,8.972,14.893,21.468,14.89,34.54L447.68,294.53z" data-original="#00EFD1" class="" data-old_color="#00EFD1"></path>
	<g>
		<path style="fill:#B9B9B9" d="M384.6,74.46l36.16,97.59h-46.99c0-32.364-26.236-58.6-58.6-58.6s-58.6,26.236-58.6,58.6H33.26    l36.16-97.59c4.603-12.423,16.451-20.67,29.7-20.67H354.9C368.148,53.793,379.995,62.038,384.6,74.46z" data-original="#D4E1F4" class="" data-old_color="#D4E1F4"></path>
		<path style="fill:#B9B9B9" d="M373.77,172.05h-117.2c0.016-32.364,26.264-58.587,58.628-58.572    C347.54,113.494,373.754,139.708,373.77,172.05z" data-original="#D4E1F4" class="" data-old_color="#D4E1F4"></path>
		<path style="fill:#B9B9B9" d="M89.75,332.65v29.56c-0.001,17.496-14.184,31.679-31.68,31.68h-26.4    C14.177,393.888-0.002,379.707,0,362.214c0-0.001,0-0.003,0-0.004v-61.76c0.001,17.491,14.179,31.669,31.67,31.67h58.08V332.65z" data-original="#D4E1F4" class="" data-old_color="#D4E1F4"></path>
	</g>
	<g>
		<path style="fill:#DD810D" d="M383.77,172.05h-20c0-26.841-21.759-48.6-48.6-48.6s-48.6,21.759-48.6,48.6h-20    c0-37.887,30.713-68.6,68.6-68.6S383.77,134.163,383.77,172.05z" data-original="#00ACEA" class="hovered-path active-path" data-old_color="#00ACEA"></path>
		<path style="fill:#DD810D" d="M272.15,283.41h-96.62c-5.523,0-10-4.477-10-10s4.477-10,10-10h96.62c5.523,0,10,4.477,10,10    S277.673,283.41,272.15,283.41z" data-original="#00ACEA" class="hovered-path active-path" data-old_color="#00ACEA"></path>
		<path style="fill:#DD810D" d="M272.15,252.79h-96.62c-5.523,0-10-4.477-10-10s4.477-10,10-10h96.62c5.523,0,10,4.477,10,10    S277.673,252.79,272.15,252.79z" data-original="#00ACEA" class="hovered-path active-path" data-old_color="#00ACEA"></path>
	</g>
	<g>
		<rect x="325.73" y="232.23" style="fill:#B9B9B9" width="75.49" height="51.74" data-original="#D4E1F4" class="" data-old_color="#D4E1F4"></rect>
		<rect x="46.46" y="232.23" style="fill:#B9B9B9" width="75.49" height="51.74" data-original="#D4E1F4" class="" data-old_color="#D4E1F4"></rect>
	</g>
</g></g> </svg>