<svg height="512" viewBox="0 0 64 64" width="512" xmlns="http://www.w3.org/2000/svg"><g id="Game_Console-8" data-name="Game Console"><path d="m45 19.08v26.61l-7.73-1.6a25.986 25.986 0 0 0 -10.54 0l-7.73 1.6v-26.61a14.519 14.519 0 0 1 1.48-.08h23.04a14.519 14.519 0 0 1 1.48.08z" fill="#c6c5ca"/><path d="m19 19.08v26.61l-10.08 2.09a4 4 0 0 1 -4.73-4.71l2.56-12.82a13.991 13.991 0 0 1 12.25-11.17z" fill="#acabb1"/><path d="m19 19.08v.37a13.952 13.952 0 0 0 -10.25 10.8l-2.56 12.82a4 4 0 0 0 2.94 4.67l-.21.04a4 4 0 0 1 -4.73-4.71l2.56-12.82a13.991 13.991 0 0 1 12.25-11.17z" fill="#898890"/><path d="m55.08 47.78-10.08-2.09v-26.61a13.991 13.991 0 0 1 12.25 11.17l2.56 12.82a4 4 0 0 1 -4.73 4.71z" fill="#acabb1"/><circle cx="13" cy="32" fill="#ffa733" r="2"/><rect fill="#ffde55" height="12" rx="1" width="18" x="23" y="23"/><circle cx="51" cy="32" fill="#ff5023" r="2"/><path d="m41 24.38v9.62a1 1 0 0 1 -1 1h-13.63a64.407 64.407 0 0 0 14.63-10.62z" fill="#ffd422"/><g fill="#d8d7da"><path d="m10 39h2v2h-2z"/><path d="m14 39h2v2h-2z"/><path d="m12 37h2v2h-2z"/><path d="m12 41h2v2h-2z"/><path d="m48 39h2v2h-2z"/><path d="m52 39h2v2h-2z"/><path d="m50 37h2v2h-2z"/><path d="m50 41h2v2h-2z"/></g><path d="m12 25h2v2h-2z" fill="#787680"/><path d="m50 25h2v2h-2z" fill="#787680"/><path d="m22 37h4v2h-4z" fill="#d8d7da"/><path d="m22 40h4v2h-4z" fill="#d8d7da"/><path d="m38 37h4v2h-4z" fill="#d8d7da"/><path d="m38 40h4v2h-4z" fill="#d8d7da"/></g></svg>