<svg xmlns="http://www.w3.org/2000/svg" width="60" height="60" viewBox="0 0 60 60">  <metadata><?xpacket begin="﻿" id="W5M0MpCehiHzreSzNTczkc9d"?><x:xmpmeta xmlns:x="adobe:ns:meta/" x:xmptk="Adobe XMP Core 5.6-c138 79.159824, 2016/09/14-01:09:01        ">   <rdf:RDF xmlns:rdf="http://www.w3.org/1999/02/22-rdf-syntax-ns#">      <rdf:Description rdf:about=""/>   </rdf:RDF></x:xmpmeta>                                                                                                                                                                                                                                                                                                                                                                                                                                                                                                                                                                                                                                                                                                                                                                                                                                                                                                                                                                                                                                                                                                                                                                                                                                                                                                                                                                                                                                                                                                                                                                                                                                                                                                                                                                                                                                                                                                                                                                                                                                                                                                           <?xpacket end="w"?></metadata><defs>    <style>      .cls-1 {        fill: #e71d36;        fill-rule: evenodd;      }    </style>  </defs>  <path id="_1" data-name="1" class="cls-1" d="M1228.97,686.032a0.972,0.972,0,0,0,.97-0.967v-8.754a2.228,2.228,0,0,1,.66-1.6l11.43-11.43a0.982,0.982,0,0,0,0-1.368,0.969,0.969,0,0,0-1.37,0l-11.43,11.429a4.18,4.18,0,0,0-1.23,2.966v8.754A0.966,0.966,0,0,0,1228.97,686.032Zm57.8-12.687-15.12-15.116a4.152,4.152,0,0,0-2.96-1.229h-8.11a0.968,0.968,0,1,0,0,1.935h8.11a2.265,2.265,0,0,1,1.6.662l15.11,15.117a2.228,2.228,0,0,1,.66,1.6v21.378a2.228,2.228,0,0,1-.66,1.6L1270.29,714.4a2.265,2.265,0,0,1-1.6.662h-21.38a2.265,2.265,0,0,1-1.6-.662l-15.11-15.117a2.228,2.228,0,0,1-.66-1.6V691.6a0.97,0.97,0,0,0-1.94,0v6.092a4.18,4.18,0,0,0,1.23,2.966l15.12,15.116a4.152,4.152,0,0,0,2.96,1.229h21.38a4.152,4.152,0,0,0,2.96-1.229l15.12-15.116a4.18,4.18,0,0,0,1.23-2.966V676.311A4.18,4.18,0,0,0,1286.77,673.345Zm-40.6,21.272a12.2,12.2,0,0,0,12.21,12.06,12.076,12.076,0,0,0,12.11-12.106,0.577,0.577,0,0,0-.02-0.131c0.02-3.587,0-15.106,0-15.22a2.86,2.86,0,0,0-2.85-2.942h-0.01a2.927,2.927,0,0,0-1.7.543v-2.628a2.9,2.9,0,0,0-2.89-2.942h-0.01a2.913,2.913,0,0,0-1.69.538V670.91a2.849,2.849,0,0,0-.85-2.076,2.9,2.9,0,0,0-2.06-.866h-0.02a2.949,2.949,0,0,0-2.95,2.921v0.864a2.881,2.881,0,0,0-1.67-.539h-0.01a2.962,2.962,0,0,0-2.98,2.921v6.49a2.878,2.878,0,0,0-1.68-.544h-0.01a2.932,2.932,0,0,0-2.93,2.922c0,0.081.01,8.089,0,11.512A0.354,0.354,0,0,0,1246.17,694.617Zm15.15-20.443a1.7,1.7,0,0,1,1.69-1.688,1.643,1.643,0,0,1,1.18.5,1.689,1.689,0,0,1,.49,1.207v12.432l-3.36-.01V674.174Zm-12.22,7.143a1.693,1.693,0,0,1,1.68,1.685v9.542a0.621,0.621,0,0,0,.62.617,6.32,6.32,0,0,1,4.52,1.905,6.456,6.456,0,0,1,1.84,4.571,0.62,0.62,0,0,0,1.24.005,7.649,7.649,0,0,0-2.2-5.441,7.5,7.5,0,0,0-4.78-2.248V674.137a1.74,1.74,0,0,1,1.74-1.688,1.694,1.694,0,0,1,1.68,1.685v8.134a0.621,0.621,0,0,0,.62.618,0.612,0.612,0,0,0,.61-0.618V670.891a1.72,1.72,0,0,1,1.73-1.688,1.692,1.692,0,0,1,1.69,1.7v15.7l-3.42-.011v-1.859a0.612,0.612,0,0,0-.61-0.618,0.621,0.621,0,0,0-.62.618v1.855l-0.62,0a0.619,0.619,0,0,0-.62.616,0.057,0.057,0,0,0,.01.039,0.605,0.605,0,0,0,.61.58l10.41,0.034a0.632,0.632,0,0,0,.07,0c0.02,0,.04,0,0.06,0l1.17,0a0.618,0.618,0,1,0,0-1.236l-0.62,0V679.2a1.709,1.709,0,0,1,1.71-1.688,1.649,1.649,0,0,1,1.62,1.7v15.35a0.579,0.579,0,0,0,.01.132,10.926,10.926,0,0,1-21.85-.183,0.308,0.308,0,0,0-.01-0.1c0.02-3.479,0-11.34,0-11.416A1.709,1.709,0,0,1,1249.1,681.317Z" transform="translate(-1228 -657)"/></svg>