<?xml version="1.0"?>
<!--
************* Copyright (c) 2017 Pareto Softare, LLC DBA Simplemaps.com *******************		
************* Free for Commercial Use, full terms at  http://simplemaps.com/resources/svg-license ************
************* Attribution is appreciated! http://simplemaps.com ***************************
-->
<svg baseprofile="tiny" fill="#7c7c7c" height="150" stroke="#ffffff" stroke-linecap="round" stroke-linejoin="round" stroke-width="2" version="1.2" viewbox="0 0 1000 150" width="1000" xmlns="http://www.w3.org/2000/svg">
 <path d="M991.6 94.3l0 0.2 0.1 0.1 0.2 0.1 0 0.1 0 0.1-0.1 0.1 0 0.1 0.1 0 0.1 0.1-0.1 0.1 0 0.1 0 0.2-0.1 0-0.1 0.1-0.1 0.2-0.1 0 0 0.1 0.1 0-0.1 0.1 0.1 0.1 0 0.1 0 0.1-0.2 0.4 0 0.3-0.1 0.3 0.1 0.1 0.1 0 0.1 0 0.2 0.2 0.1 0 0 0.1 0.1 0.1 0.1 0.1 0 0.1 0 0.1 0 0.2 0.1 0.1-0.1 0.2 0 0.1 0.1 0.1 0.1 0 0.3 0.1 0.1 0 0.1 0.1 0 0.1-0.1 0-0.1 0-0.2 0.3-0.2 0.2 0 0.1-0.1 0.1 0 0.1-0.1 0-0.1 0.3-0.1 0.1 0-0.1-0.1-0.1-0.3 0-0.4-0.1-0.5 0.1-0.4 0.1-0.5 0-0.2-0.1-0.2 0.1-0.4 0-0.3 0.1-0.1 0 0.1-0.2 0.1-0.3 0.1-0.2 0-0.1 0.1-0.1 0-0.2 0-0.1 0.1 0 0-0.1-0.1-0.1 0-0.1 0.1 0 0-0.2 0-0.2 0-0.1-0.1-0.3 0-0.2-0.1-0.1-0.2-0.3-0.1-0.1-0.2-0.3-0.2-0.1-0.2-0.1-0.1 0-0.1 0 0.1-0.1 0-0.1 0.1 0 0.1-0.1 0.1-0.1 0.1-0.1 0-0.1 0.1 0 0-0.1 0-0.2 0-0.2 0-0.1 0-0.1-0.2-0.1 0-0.1-0.1-0.1 0-0.1 0.1-0.1-0.1 0-0.1-0.1 0-0.1 0-0.1 0.1-0.1 0.1 0 0-0.1 0.1-0.1 0.2-0.3 0.1 0 0-0.1-0.2-0.1 0-0.1-0.1-0.1-0.1 0-0.1-0.1 0-0.1 0-0.1 0-0.1-0.1 0.1-0.1-0.2 0-0.1 0-0.1 0.1-0.1 0.1 0 0.1-0.1 0.1 0 0-0.1 0.1-0.1-0.1-0.1 0.1 0 0.1 0 0.1-0.1 0.1 0 0.1 0 0.1 0 0.1 0 0.1 0 0.1-0.1 0.1-0.1 0.1-0.1 0 0.1 0.1 0 0.2-0.1 0.1 0 0.1 0.1 0.1 0 0.1 0 0.1 0 0 0.1-0.1 0.1 0 0.1-0.1 0.2-0.1 0.1 0.1 0.1 0.1 0.1 0 0.1-0.1 0.1 0 0.1 0.1 0 0 0.1 0 0.1-0.1 0.1 0.1 0 0.1 0 0.1 0 0 0.1 0 0.1-0.1 0.1 0 0.1 0.1 0.1-0.1 0.2 0 0.1-0.1 0.1 0 0.2 0.3 0.1 0.2 0 0.1 0 0.1-0.1 0.1 0 0-0.1 0-0.1 0.1 0 0-0.1 0.1 0 0.1-0.1 0.1-0.1 0.2 0.1 0.2-0.1 0.1 0z" id="NZL3334" name="Manawatu-Wanganui">
 </path>
 <path d="M996.4 93.7l-0.1-0.2-0.1 0-0.3-0.3-0.5-0.5 0-0.3-0.2-0.1-0.1 0.1-0.6-0.3 0.1-0.1-0.1-0.1 0-0.2 0.2-0.1 0.4-0.1 0.1-0.1 0-0.1 0-0.2 0-0.1 0.1 0 0.1 0 0.1-0.1 0.1-0.1 0.1 0 0-0.1 0.1-0.1 0-0.1 0-0.1-0.1-0.1 0.1 0 0.1 0 0.1 0.1 0.1 0.1 0.1 0.1 0.1-0.2 0.2-0.5 0.1-0.3 0.1-0.1 0.1-0.1 0-0.1-0.1 0-0.1 0 0-0.1 0-0.1 0-0.1 0-0.1 0-0.1 0.2 0 0.1-0.1 0-0.1 0.5 0 0.1 0.1 0 0.1 0.1 0 0 0.1 0.1 0 0.1 0 0.1 0 0.1 0 0 0.1 0.1 0 0.1 0.1 0 0.1-0.1 0.1-0.1 0.1 0 0.2-0.1 0.1-0.1 0.1-0.1 0.3-0.1 0.1 0 0.1 0.1 0.1 0 0.1 0 0.1-0.1 0 0 0.1 0 0.2 0 0.1-0.1 0.1 0 0.1 0.1 0 0 0.1 0.1 0-0.1 0.1 0 0.1 0 0.1 0 0.1 0 0.1-0.1 0 0 0.1 0 0.2-0.4 0.4-0.2 0.2-0.1 0.1-0.1-0.1-0.1 0-0.1 0-0.1 0.1 0.1 0 0 0.1 0 0.1 0 0.1 0 0.2-0.1 0.2 0 0.2z" id="NZL3396" name="Gisborne District">
 </path>
 <path d="M996.4 93.7l0 0.1 0 0.1 0 0.1-0.1 0 0 0.1-0.1 0-0.1 0.1-0.1-0.1-0.5 0-0.4 0-0.1-0.1-0.1 0.1-0.5 0.2-0.4 0.2 0 0.1-0.1 0.1 0 0.1-0.1 0.1-0.1 0.1 0 0.1-0.1 0.1 0 0.1 0 0.1 0 0.1 0.1 0 0 0.1 0 0.3 0 0.1 0 0.1 0.1 0 0.1 0.1 0.1 0 0.1 0 0.1 0 0 0.1-0.1 0 0 0.1 0 0.1-0.1 0-0.1 0 0 0.1 0 0.2 0 0.1-0.1 0 0 0.1-0.1 0.3-0.1 0.2-0.1 0.1 0.1 0.1-0.1 0.1 0 0.2-0.1 0.1-0.1 0.2-0.1 0.1-0.1 0 0-0.1-0.1 0 0 0.1-0.1 0.1 0.1 0-0.2 0.4 0 0.2-0.1-0.1-0.1 0-0.3-0.1-0.1 0-0.1-0.1 0-0.1 0.1-0.2-0.1-0.1 0-0.2 0-0.1 0-0.1-0.1-0.1-0.1-0.1 0-0.1-0.1 0-0.2-0.2-0.1 0-0.1 0-0.1-0.1 0.1-0.3 0-0.3 0.2-0.4 0-0.1 0-0.1-0.1-0.1 0.1-0.1-0.1 0 0-0.1 0.1 0 0.1-0.2 0.1-0.1 0.1 0 0-0.2 0-0.1 0.1-0.1-0.1-0.1-0.1 0 0-0.1 0.1-0.1 0-0.1 0-0.1-0.2-0.1-0.1-0.1 0-0.2 0.1-0.2 0.2 0.2 0.2 0.1 0.1-0.1-0.1 0 0.1-0.1 0.1 0 0-0.1-0.1-0.1 0.2-0.2 0.2 0 0.1 0 0.1 0-0.1-0.1 0-0.1 0.1-0.1 0.1-0.1 0.1-0.2 0-0.1 0-0.1 0-0.1 0.1-0.1 0.1-0.1 0.3-0.1 0.1 0.1 0.1 0 0.1 0 0.1-0.1 0-0.1 0.1 0 0-0.1 0.1 0 0.1-0.1 0.1 0 0-0.1 0.1 0 0-0.1 0.1 0 0.6 0.3 0.1-0.1 0.2 0.1 0 0.3 0.5 0.5 0.3 0.3 0.1 0 0.1 0.2z m-0.1 0.4l0.2 0 0.1 0.1 0 0.1-0.1 0.1-0.1 0.2 0 0.1 0 0.1-0.1 0-0.1-0.2 0-0.1 0-0.1 0-0.1 0-0.1 0.1 0 0-0.1z" id="NZL3397" name="Hawke's Bay">
 </path>
 <path d="M988.3 85.9l0-0.1 0.2 0 0 0.1 0.1 0 0.1-0.1 0.1-0.1 0 0.1 0 0.1 0 0.1 0 0.1-0.1-0.1-0.1 0.1-0.1 0-0.1-0.1 0-0.1-0.1 0z m-0.3-1.2l-0.1 0.1-0.1-0.1 0.1 0-0.1-0.1 0-0.1 0.1 0 0.1 0.1 0 0.1z m0.6-0.7l-0.1 0 0-0.1 0-0.1 0.1 0 0.1 0 0 0.1-0.1 0.1z m0.6 2.7l-0.2 0.1-0.1-0.1 0 0.2-0.1 0.1 0 0.3-0.3 0-0.3 0.1-0.3 0.1-0.2 0.1-0.2 0.1-0.2 0 0-0.1-0.1-0.2 0-0.1 0-0.1-0.2-0.2 0-0.1 0.1 0 0.1 0 0.1 0 0 0.1 0.1 0.3 0 0.1 0.1 0.1 0.1-0.1-0.1 0 0-0.1 0.1 0-0.1-0.1 0.1-0.2 0.1 0.1 0.1-0.1 0-0.1 0.1 0 0.1 0.2 0.1 0 0-0.1 0-0.1-0.2-0.1-0.1 0 0-0.1 0-0.1-0.1 0.1-0.1 0 0-0.1 0.1 0 0-0.1 0.1 0-0.2-0.1-0.2 0-0.1 0.1-0.1 0 0 0.1 0 0.1-0.1 0-0.1 0 0 0.1-0.1 0-0.1-0.1-0.1-0.4-0.1-0.3 0-0.2-0.2-0.2-0.3-0.5-0.1-0.2 0-0.1 0.1 0 0-0.1 0.1 0 0 0.1 0.1 0.1 0 0.1 0.1 0 0 0.1 0 0.1 0.1 0-0.1 0.1 0.1 0 0 0.1 0.1 0 0 0.1 0.1 0 0-0.1 0-0.1 0.1 0 0-0.1-0.1-0.1 0.1-0.1-0.1-0.1 0-0.1 0.1-0.1-0.1 0 0-0.1 0-0.1 0.1 0-0.1-0.1-0.1 0 0 0.1-0.1 0-0.1 0-0.1 0-0.1 0 0-0.1 0.1-0.1 0.1 0 0.1 0 0.1 0 0-0.1 0.1 0 0.1 0 0-0.1 0.1 0 0-0.1 0.1-0.1 0.2-0.2 0.1-0.1 0 0.1 0.2 0.2 0.1 0.1 0.1 0.1 0.1 0 0 0.1-0.1 0 0 0.1 0.1 0.1-0.2 0 0 0.1 0 0.1 0 0.1-0.1-0.1 0 0.2-0.1 0 0.1 0.1 0 0.1-0.1 0 0 0.1 0.1 0 0 0.1 0 0.1 0.1 0 0.1 0 0.1 0-0.1 0.1-0.1 0-0.1 0 0.1 0.1 0.1 0.5-0.1 0-0.1 0 0-0.1-0.1-0.1-0.1 0.1-0.1 0 0 0.1 0.1 0 0 0.1 0 0.2 0.1 0 0-0.1 0.1 0 0-0.1 0.1 0 0.1 0 0.2 0 0.1 0.1 0-0.1 0.1 0 0 0.2 0 0.1 0.1 0 0.1 0 0-0.1 0-0.1 0.1 0 0.1 0.1 0 0.2 0 0.1 0.1 0 0-0.1 0.1 0 0.1 0 0.1 0 0.1 0 0.1 0.2 0.1 0z m-1.2-0.4l-0.1 0 0 0.1 0 0.1 0.1 0 0-0.2z m1.2-2.3l0.1 0 0-0.1 0-0.1 0-0.1-0.1 0 0-0.1 0.1 0 0-0.1 0-0.1 0.1 0 0 0.1 0.1 0 0 0.1 0 0.1 0.1 0 0.1 0.1 0 0.1 0 0.1 0 0.1 0.1 0 0 0.1 0 0.1 0 0.1-0.1 0 0-0.1 0-0.1-0.1 0.1-0.1 0 0-0.1 0-0.1-0.1 0 0-0.1-0.1 0.1-0.1-0.1z" id="NZL3398" name="Auckland">
 </path>
 <path d="M996.9 88.6l0 0.1-0.1 0.1-0.2 0 0.1-0.1 0-0.1 0.2 0z m-0.3 0.2l0 0.1 0 0.1 0 0.1 0 0.1 0 0.1 0.1 0 0.1 0 0 0.1-0.1 0.1-0.1 0.1-0.1 0.3-0.2 0.5-0.1 0.2-0.1-0.1-0.1-0.1-0.1-0.1-0.1 0-0.1 0 0.1 0.1 0 0.1 0 0.1-0.1 0.1 0 0.1-0.1 0-0.1 0.1-0.1 0.1-0.1 0-0.1 0 0 0.1 0 0.2 0 0.1-0.1 0.1-0.4 0.1-0.2 0.1 0 0.2 0.1 0.1-0.1 0.1-0.1 0 0 0.1-0.1 0 0 0.1-0.1 0-0.1 0.1-0.1 0 0 0.1-0.1 0 0 0.1-0.1 0.1-0.1 0-0.1 0-0.1-0.1-0.3 0.1-0.1 0.1-0.1 0.1 0 0.1 0 0.1 0 0.1-0.1 0.2-0.1 0.1-0.1 0.1 0 0.1 0.1 0.1-0.1 0-0.1 0-0.2 0-0.2 0.2 0.1 0.1 0 0.1-0.1 0-0.1 0.1 0.1 0-0.1 0.1-0.2-0.1-0.2-0.2 0.1-0.2 0-0.3-0.1-0.1 0 0.1-0.1 0-0.1-0.1-0.1-0.1 0-0.2-0.1 0 0-0.2 0.1 0 0.2 0 0.1 0 0-0.2-0.1-0.1 0-0.1 0-0.2 0-0.1-0.2 0-0.2-0.1 0-0.1 0.1-0.1 0-0.1 0.1 0 0.1 0 0.1 0.1 0.1 0 0.1 0 0.1-0.1 0.1 0 0 0.1 0 0.1-0.1 0 0 0.1 0.1 0.1 0.1-0.1 0-0.1 0.1-0.1 0.1 0.1 0.1-0.1 0.1-0.3-0.1-0.1 0-0.1-0.5-0.2 0-0.1-0.1-0.1 0-0.2-0.1-0.1 0-0.1 0-0.1-0.1-0.1-0.2 0-0.1-0.1-0.1-0.1 0-0.1-0.1 0-0.1 0 0-0.1-0.1-0.1 0.1-0.1 0-0.1-0.1-0.1-0.1-0.3-0.1-0.3 0-0.1-0.1-0.1 0-0.1 0-0.1 0-0.1-0.1-0.1 0-0.1 0.1 0 0.1 0 0-0.1 0-0.1 0.1-0.1 0-0.1 0.1 0 0.1 0.1 0 0.1 0.1 0 0 0.1-0.1 0 0.1 0.1 0.1 0 0.1 0.1 0.1 0.2 0.1 0.1 0 0.1-0.1-0.1-0.1 0-0.1-0.1 0.1 0-0.1-0.1-0.1-0.1-0.1 0-0.1 0 0 0.1 0 0.1 0.1 0 0 0.1 0 0.1 0.1 0 0.1 0 0.1 0.1 0.1 0 0 0.1 0.1 0 0-0.1 0.1 0 0 0.1 0 0.1 0.1 0 0-0.2-0.1-0.1 0.1 0 0.1 0.2 0.1 0 0.2 0.1 0.1 0 0 0.1 0.1 0 0.1 0 0 0.1 0.1 0 0.6 0.4 0.1 0 0.1 0.1 0.2 0 0.2 0.1 0.2 0 0.2 0.1-0.1 0.1 0.2 0.1 0.1 0 0-0.1 0-0.1 0.1 0.1 0.2 0 0 0.1 0.1-0.1 0.1-0.1 0.3 0 0.1-0.1 0.2-0.1 0.1-0.1 0-0.1 0.1-0.1 0-0.1 0.1 0 0.1-0.1 0-0.1 0-0.1 0.1 0 0-0.1 0.3-0.1 0.1 0 0-0.1 0.1-0.1 0.2 0z" id="NZL3399" name="Bay of Plenty">
 </path>
 <path d="M985.7 104.8l-0.2 0.2-0.1 0.1-0.1 0.1 0 0.1 0 0.1 0 0.1 0 0.1-0.1 0.1-0.1 0.1-0.1 0.1-0.1 0.1-0.1 0.1-0.1 0 0 0.1-0.1 0.1 0 0.1 0.1 0.1 0 0.1-0.1-0.1-0.1 0-0.1 0 0 0.1-0.2 0.1 0 0.2-0.1 0.2 0 0.1-0.2 0.1 0.1 0-0.2 0.5-0.1 0.1 0 0.1-0.1 0.1 0 0.1 0 0.1-0.1 0.1 0 0.1-0.1 0-0.1 0.1-0.1 0-0.1 0.1-0.1 0.1-0.1 0.1-0.4 0.1-0.1 0.1-0.1 0.1-0.2 0.1 0 0.1-0.1 0.2 0 0.1-0.1 0 0.1 0.1 0 0.1-0.1 0.1 0 0.2 0 0.1 0 0.1 0.1 0.2 0 0.2 0 0.1 0 0.1 0.1 0-0.2 0.1-0.1 0 0 0.1 0.1 0 0.1-0.1 0.1 0 0.1 0 0.1 0.1 0.1-0.1 0.1 0.1-0.1 0.1 0.1 0 0.1-0.1 0.1 0 0 0.1 0.1-0.1 0 0.1 0.1 0 0.1 0.1-0.1 0.1 0.1 0.1 0 0.1 0 0.1-0.1 0.1-0.1 0.1-0.1 0.1-0.1 0 0-0.1 0-0.1 0-0.1-0.1-0.1 0-0.1-0.1 0 0.1 0.1 0 0.1-0.1 0.1 0.1 0.1 0.1 0.2-0.1 0-0.2 0-0.1-0.1-0.1 0-0.1-0.1-0.1-0.1 0-0.1-0.3 0 0 0.1-0.2 0-0.2 0.1-0.2 0 0-0.1 0.1 0 0.1 0 0.4-0.2 0-0.1-0.1 0-0.1 0-0.1-0.1-0.1 0-0.1 0-0.1 0 0 0.1 0 0.1-0.1 0.1 0 0.1 0.1 0.1-0.1 0-0.3 0.1-0.1 0.1-0.1 0-0.1 0.1-0.3 0.1-0.5 0.4-0.1 0-0.1 0-0.2 0.2-0.1 0-0.1 0 0 0.1-0.1 0-0.1 0.1-0.1 0-0.1 0.1-0.1 0.1-0.2 0.2-0.1 0-0.1 0.1-0.2 0.3 0 0.1 0 0.2 0 0.1-0.1 0.1 0 0.1-0.1 0.1-0.1 0 0.1 0.1 0 0.1 0 0.3 0.1 0.2 0 0.1-0.1 0.1-0.1 0.1 0.1 0 0.1 0.1 0 0.1-0.1 0.2 0 0.1 0 0.1-0.1 0-0.1 0-0.3-0.1-0.5-0.2-0.2 0.1-0.1 0-0.1 0-0.1 0.1-0.5 0.4-0.2 0.1-0.1 0-0.1-0.1 0-0.1 0-0.1 0-0.1 0-0.1-0.1 0-0.1 0-0.2 0-0.2 0-0.1 0-0.1-0.1-0.1-0.2-0.1-0.2-0.1-0.3 0-0.1-0.1-0.1-0.1-0.1-0.2 0.1-0.2-0.2 0-0.1-0.1 0-0.1 0 0-0.1-0.1-0.3 0-0.1-0.1-0.1-0.1 0 0-0.1 0-0.8 0.1-0.1 0-0.1 0.1-0.1 0-0.1 0.1-0.1 0-0.1 0.1-0.1-0.1-0.2 0.2-0.2 0.1-0.1 0.1-0.1 0.4-0.4 0.1-0.1 0.1-0.1 0-0.1 0.1-0.1 0.1-0.1 0-0.1 0-0.1 0.1-0.1 0.2-0.2 0.1 0 0.3-0.1 0.4-0.2 0.1-0.1 0.1 0 0.1 0 0.3-0.3 0.5-0.4 0.3-0.1 0.1-0.1 0.2-0.3 0.1-0.1 0.2 0 0.1-0.1 0.1-0.1 0-0.1 0.1-0.1 0.1 0 0.1-0.1 0.1 0 0.1 0 0-0.1 0.1 0 0.1 0 0.1 0 0.1 0 0.1 0 0.1-0.1 0.1 0 0.1 0 0-0.1 0.1-0.1 0-0.1 0-0.1 0.1 0 0.2-0.1 0-0.1 0-0.1 0.1 0 0.1-0.1 0-0.1 0.1 0 0.1-0.1 0.1 0 0.1 0 0-0.1 0.1-0.1 0.1-0.1 0.1-0.1 0.1-0.1 0-0.1 0.1 0 0.1-0.2 0.2-0.1 0.1 0 0.1-0.1 0-0.1 0.1-0.1 0-0.1 0.1-0.1 0.1 0 0.1-0.2 0.1-0.1 0-0.2 0.1-0.1 0.1 0 0.1 0 0 0.2 0.1 0 0.1 0 0 0.1 0.1 0 0 0.1 0 0.1 0 0.1 0 0.1 0.1 0 0 0.1 0.1 0 0 0.1 0.1 0 0 0.1 0.1 0.1 0 0.1 0 0.1 0.1 0 0.1 0.1 0.1-0.1 0.1 0 0.1-0.1 0-0.1 0.1 0 0.1-0.2-0.1-0.1 0.1-0.1 0.1-0.1 0.1-0.1 0.1-0.1 0.3-0.1 0-0.1 0.1 0 0-0.1 0-0.2 0.2-0.2 0.1 0 0.1-0.1 0.1-0.1 0.1 0 0-0.1 0.1-0.1 0.1 0 0 0.1 0.1 0 0-0.1 0.1 0 0.2 0 0.1 0 0.1 0 0.1 0 0.1 0 0 0.1 0.1 0.1z" id="NZL3400" name="Canterbury">
 </path>
 <path d="M986.4 101.9l-0.1 0-0.1 0.1-0.1 0-0.1 0 0-0.1 0.1 0 0.1 0 0.1-0.1 0.1 0 0.1-0.1-0.1 0 0-0.1 0.1-0.1 0.1 0 0 0.1 0 0.1-0.1 0.1 0 0.1-0.1 0z m-0.7 2.9l-0.1-0.1 0-0.1-0.1 0-0.1 0-0.1 0-0.1 0-0.2 0-0.1 0 0 0.1-0.1 0 0-0.1-0.1 0-0.1 0.1 0 0.1-0.1 0-0.1 0.1-0.1 0.1-0.1 0-0.2 0.2 0 0.2 0 0.1-0.1 0 0 0.1-0.3 0.1-0.1 0.1-0.1 0.1-0.1 0.1-0.1 0.1 0.1 0.1-0.1 0.2-0.1 0 0 0.1-0.1 0.1-0.1 0-0.1 0.1-0.1-0.1-0.1 0 0-0.1 0-0.1-0.1-0.1 0-0.1-0.1 0 0-0.1-0.1 0 0-0.1-0.1 0 0-0.1 0-0.1 0-0.1 0-0.1-0.1 0 0-0.1-0.1 0-0.1 0 0-0.2-0.1 0 0.1-0.3 0.3-0.4 0.1-0.2 0-0.2 0.1-0.1 0-0.1 0.1 0 0-0.1 0.1-0.1 0.2-0.2 0-0.1 0.3-0.3 0-0.1 0.2 0 0.1 0 0-0.1 0-0.1 0-0.1 0-0.1 0.1-0.1 0.1-0.1 0.1-0.1 0.3-0.4 0.1-0.1 0.1-0.1 0-0.1 0.1-0.1 0-0.1 0-0.1 0-0.1 0.1 0 0 0.1 0.1 0.1 0.1 0-0.1-0.1 0.1 0 0.1-0.1 0-0.1-0.1 0.1 0-0.1 0-0.1 0.1 0 0.1-0.1 0.1 0 0.1-0.1 0 0.1 0.1 0 0.1-0.1 0.1-0.1 0.1 0 0.1 0 0 0.1-0.1 0-0.1 0.1-0.1 0 0 0.1-0.1 0.1-0.1 0 0-0.1-0.1 0-0.1 0.1 0.1 0 0 0.1 0 0.1-0.1 0.1 0.1 0 0.1-0.1 0-0.1 0.2 0 0.1 0 0 0.1-0.1 0-0.1 0 0 0.1 0 0.1-0.1 0 0 0.1 0.1 0.1 0 0.1 0 0.1-0.1 0-0.1 0.1-0.1 0 0 0.1 0.1 0 0.3-0.2-0.1-0.1 0.2 0 0.1 0 0 0.1 0 0.1-0.1 0 0 0.1 0.1-0.1 0.1 0.1 0-0.1 0.1 0 0.1 0 0.1-0.1-0.1 0-0.1 0-0.1 0 0-0.1 0.1 0 0.1 0 0.1 0 0-0.1-0.3 0-0.1 0.1 0-0.1-0.2 0-0.1-0.1 0.1 0 0-0.1 0.1 0-0.1-0.1 0.1 0 0-0.1 0.1 0 0 0.1 0 0.1 0.1-0.1 0.1 0-0.1-0.1 0.1-0.1 0-0.1-0.1 0 0 0.1-0.1 0-0.1-0.1 0.1 0 0-0.1 0-0.1 0.1 0 0.1 0.1 0.1 0.1 0.1 0 0-0.1 0.1 0.1 0-0.1 0-0.1 0.1 0 0 0.1 0.1 0.1 0 0.1-0.1 0 0 0.1 0.1 0 0-0.1 0.1-0.1 0.1-0.1 0.1 0.1-0.1 0-0.1 0.3 0 0.1-0.1 0 0 0.1-0.1 0 0-0.1-0.1 0 0.1 0.1 0 0.1 0.1 0-0.1 0.1-0.1 0 0 0.1 0 0.1 0.1 0 0.1 0 0.1 0 0-0.1 0.2-0.1-0.1 0.1 0 0.1-0.1 0.1 0 0.1-0.1 0-0.1 0.1 0-0.1-0.1 0-0.1 0 0 0.1-0.1 0.1 0 0.1-0.1 0.1 0 0.1 0 0.1 0 0.1 0 0.1 0.1 0 0 0.1 0.1 0 0-0.1-0.1-0.1 0.1 0 0.1 0.3 0.1 0.1 0 0.1 0 0.2 0.1 0.1 0 0.1 0.1 0 0.1 0 0 0.1-0.2 0.3-0.1 0.1-0.3 0.4z m-0.4-4.5l0 0.1 0 0.1-0.1 0.1-0.1 0 0 0.1-0.1 0 0-0.1-0.1-0.1 0-0.1 0.1-0.1 0.1-0.1 0 0.1 0 0.1 0.1 0 0-0.1 0.1-0.1 0-0.1 0.1-0.1 0 0.1 0 0.1-0.1 0.1z m-0.3 0.4l0 0.1-0.1 0 0-0.1-0.1 0 0-0.1 0-0.1 0.1 0.1 0.1 0.1z m-0.1 0.1l0 0.1-0.1-0.1 0.1 0z m0.6 1.2l0 0.1-0.1-0.1 0.1 0z" id="NZL3401" name="Marlborough District">
 </path>
 <path d="M983.5 102.6l-0.1-0.1-0.2-0.1 0-0.1 0.2-0.1 0-0.1 0.1 0 0.1-0.2 0.2-0.2 0.1-0.1 0 0.1 0.1 0 0.1 0 0-0.1 0-0.1 0.1 0 0.1 0 0 0.1-0.1 0.1 0 0.1-0.1 0.1-0.1 0.1-0.3 0.4-0.1 0.1-0.1 0.1z m0.8-1.1l-0.1-0.1 0.1 0 0 0.1z" id="NZL3402" name="Nelson City">
 </path>
 <path d="M983.2 102.3l0 0.1 0.2 0.1 0.1 0.1-0.1 0.1 0 0.1 0 0.1 0 0.1 0 0.1-0.1 0-0.2 0 0 0.1-0.3 0.3 0 0.1-0.2 0.2-0.1 0.1 0 0.1-0.1 0 0 0.1-0.1 0.1 0 0.2-0.1 0.2-0.3 0.4-0.1 0.3-0.1 0-0.1 0.1 0 0.2-0.1 0.1-0.1 0.2-0.1 0-0.1 0.1-0.1 0-0.1 0.1 0-0.1-0.1 0 0-0.1-0.1-0.1 0-0.2 0-0.1-0.1 0-0.1 0-0.1-0.1 0-0.1-0.1 0-0.1 0-0.1-0.1 0-0.1 0-0.1 0-0.1-0.1 0 0-0.1-0.1-0.1 0.1-0.2 0.1-0.1 0-0.1 0-0.1 0-0.1 0-0.1 0-0.1 0.1-0.1 0.1 0 0.1 0 0-0.1 0-0.1 0.1 0 0-0.1 0.1 0 0.1-0.1 0-0.1 0-0.2 0.1-0.1 0.1 0 0-0.1 0-0.1 0-0.1 0.1 0 0.1 0 0.1 0 0.1 0 0-0.1 0.1-0.1 0-0.1 0-0.1 0-0.1 0-0.1 0.2 0 0.1-0.2-0.1-0.1-0.1 0-0.1-0.1-0.1-0.1-0.1 0 0-0.1-0.1-0.1 0-0.1-0.1 0-0.1 0-0.1 0-0.1 0.1 0-0.1 0-0.1 0-0.1 0.1-0.1-0.1-0.1-0.1-0.1 0-0.1-0.1-0.1-0.1-0.3 0.1 0 0.1-0.1 0.2-0.1 0.3-0.4 0.1-0.1 0.1 0-0.1 0.1 0.1 0 0.1 0 0-0.1 0.1 0 0-0.1-0.1 0-0.1 0 0.1-0.1 0.2-0.1 0.3 0-0.1 0.1 0 0.1-0.1 0.1 0 0.1 0 0.1-0.1 0 0 0.1 0.1 0 0 0.1 0 0.1 0 0.1 0.1 0 0 0.1 0.1 0.1 0.3 0.1 0.1 0 0.1 0-0.1-0.1 0.1 0 0.1 0 0-0.1 0.1 0 0 0.1 0 0.1 0 0.1 0.1 0 0 0.1 0 0.2 0 0.1 0 0.1-0.1 0-0.1 0.1 0.1 0 0.1 0.2 0 0.1 0 0.1-0.1 0.1 0.1 0 0 0.1 0.1 0 0 0.2 0 0.1 0 0.1 0 0.1 0.1 0 0.1 0 0.1 0z m-1.2-3l0.2 0 0.2 0 0.2 0.1-0.6-0.1z" id="NZL3403" name="Tasman District">
 </path>
 <path d="M987.3 83.6l-0.1 0.1-0.2 0.2-0.1 0.1-0.1 0-0.1 0-0.1 0.1-0.1 0 0-0.1 0.1-0.1 0-0.1 0-0.1 0.1 0 0-0.1-0.1 0 0 0.1-0.1 0.1 0 0.1-0.1 0.1 0-0.1-0.1 0 0-0.1-0.1 0 0-0.1 0-0.1-0.1 0.1 0-0.1-0.1 0.1 0 0.1 0.1 0 0.1 0.1 0.1 0 0 0.1-0.1 0 0 0.1-0.1 0 0-0.1-0.1 0 0-0.1-0.1 0 0-0.1-0.1 0-0.1 0-0.1-0.1-0.1-0.1-0.1 0 0 0.1 0.1 0 0.1 0 0 0.1 0.1 0.1 0.1 0.2 0.1 0 0.1 0.1-0.1 0 0.1 0.1 0 0.1 0 0.1-0.1 0-0.1 0.1-0.1 0-0.1-0.2-0.1-0.3-0.3-0.5-0.1-0.2-0.7-0.9-0.6-0.8 0-0.1 0.1-0.2 0-0.1 0-0.1 0.1 0 0.1 0 0 0.1 0.1 0 0-0.2 0.1 0.1 0-0.1 0-0.1 0.1 0 0-0.1 0.1 0 0-0.1-0.1 0 0-0.1-0.1 0 0 0.1-0.1-0.1 0 0.1 0.1 0.1-0.1 0.1-0.1 0 0-0.1-0.1 0 0 0.1 0 0.1-0.1 0 0-0.1-0.1 0 0 0.1 0 0.1-0.1 0.3-0.3-0.3 0-0.1 0-0.1 0.1-0.1-0.1 0 0.1-0.1-0.1 0 0 0.1 0 0.1-0.1 0-0.1-0.1 0-0.1 0.1-0.1-0.1 0-0.1 0-0.1-0.1-0.1-0.1 0-0.1 0.1-0.1 0 0.1 0.1 0 0.1-0.1 0-0.2 0-0.2 0-0.2-0.1-0.2-0.2-0.2-0.1-0.1-0.1-0.2 0-0.1-0.6-0.7-0.1-0.1-0.3-0.2 0.1 0 0-0.1 0-0.1 0.1 0 0 0.1 0.2 0 0.1 0 0.1 0 0.1-0.1 0.3 0 0.1 0 0.1 0-0.1 0.1 0 0.2 0 0.1-0.1 0 0-0.1-0.1 0 0-0.1-0.1 0 0 0.1 0 0.1-0.1 0 0 0.1 0.1 0.1 0.1 0 0-0.1 0.1 0.1 0-0.1 0.1 0 0 0.2 0 0.2 0.1 0.1 0 0.1 0.2 0.1 0.1 0.1 0 0.2-0.2-0.2 0 0.1 0.1 0.1 0.4 0.2 0 0.1-0.1 0 0 0.1 0 0.1 0.1 0.1 0.1 0 0-0.1 0.1-0.1 0-0.1-0.1-0.2 0.1 0 0.1-0.1 0.1 0 0.1 0 0.1 0.1-0.2 0-0.1 0 0 0.1 0 0.1 0.1 0.1 0 0.1 0.1 0 0.1 0 0.1 0 0.1 0.1 0-0.1 0-0.1-0.1 0 0-0.1 0.1 0 0.1 0.1 0-0.1 0.1 0 0 0.1 0.1 0 0.1 0 0 0.1 0.1 0 0 0.1 0 0.1-0.1 0 0 0.1 0.1 0.1 0.1-0.1-0.1 0 0.1-0.1 0-0.1 0.1-0.1 0.1 0 0.1 0.1 0.1 0.1 0.1 0.1 0 0.1 0.1 0 0.2 0 0.1 0.1 0.1 0.1-0.1 0.1-0.1 0 0-0.1-0.1 0 0-0.1-0.1 0.1 0.1 0.1-0.1 0 0 0.1 0.1 0 0.1 0 0 0.1 0 0.1 0.1 0.1 0.1 0 0 0.1 0.1 0 0-0.1-0.1-0.1 0-0.1 0.1 0 0.2 0.1-0.1-0.1 0.1 0 0.1 0 0.1-0.1 0-0.1 0.1 0.1-0.1 0.1 0 0.1 0 0.1 0.1 0 0.1 0 0 0.1-0.1 0 0.1 0.1-0.1 0-0.1-0.1 0.1 0.3 0.1 0 0.1 0 0 0.1 0.1 0 0 0.1 0.1 0-0.1 0.1 0.1 0.1 0.1 0.2 0.1 0.1-0.1 0.1 0-0.1-0.1 0-0.1 0 0 0.1 0.1 0 0 0.1 0.1 0 0 0.1-0.1 0 0.2 0.1 0 0.1 0 0.1 0 0.1 0 0.1-0.1-0.1-0.1-0.1-0.1-0.1-0.1 0-0.1 0-0.1 0 0-0.1 0-0.1-0.1 0.1 0.1 0.1-0.1 0.1 0 0.1 0.1 0.1 0-0.1 0.1-0.1 0.2 0.1 0.1 0 0 0.1-0.1 0.1 0 0.1 0 0.1 0 0.1 0.1 0.1 0.1 0.1 0.1 0 0.1 0 0 0.1 0 0.1 0 0.1 0.1 0z m-1.2-2.8l0 0.1 0.1-0.1-0.1 0z m-0.7 2.6l0-0.1-0.1-0.1 0-0.1-0.1-0.1 0.1-0.1 0-0.1-0.1-0.1 0 0.1 0.1 0-0.1 0.1-0.1 0.1 0.2 0.2 0 0.1 0.1 0.1z m-1.5-4.3l-0.1 0 0.1-0.1 0 0.1z m-1.4-0.8l0-0.1 0.1 0-0.1 0.1z m3.9 5.9l-0.1 0 0-0.1 0.1 0 0 0.1z" id="NZL3404" name="Northland">
 </path>
 <path d="M987.9 93l-0.1 0-0.1 0.1 0 0.1 0 0.1 0.1 0.2 0.1-0.1 0 0.1 0 0.1 0 0.1 0.1 0.1 0.1 0 0.1 0.1 0 0.1 0.2 0.1 0 0.1-0.1 0-0.2 0.3-0.1 0.1 0 0.1-0.1 0-0.1 0.1 0 0.1 0 0.1 0.1 0.1 0.1 0-0.1 0.1 0 0.1 0.1 0.1 0 0.1 0.2 0.1 0 0.1 0 0.1 0 0.2 0 0.2 0 0.1-0.1 0 0 0.1-0.1 0.1-0.1 0.1-0.1 0.1-0.1 0 0 0.1-0.1 0.1-0.1 0-0.2-0.1-0.2 0-0.1 0-0.3-0.3-0.1-0.1-0.1-0.3-0.2-0.1-0.1-0.1-0.1 0-0.5-0.1-0.2 0-0.4-0.3-0.1-0.1-0.1-0.2 0-0.1 0-0.2 0-0.2 0-0.2 0.1-0.1 0.1-0.1 0.3-0.1 0.7-0.5 0.1 0 0.4 0 0.1 0 0.1-0.1 0.4-0.4 0-0.1 0-0.1 0.1-0.1 0-0.1 0-0.1 0.2 0.1 0.2 0.1 0.1-0.1 0 0.1 0.1 0 0.1 0.1z" id="NZL3405" name="Taranaki">
 </path>
 <path d="M980.5 100.3l0.1 0.3 0.1 0.1 0 0.1 0.1 0.1 0.1 0.1-0.1 0.1 0 0.1 0 0.1 0 0.1 0.1-0.1 0.1 0 0.1 0 0.1 0 0 0.1 0.1 0.1 0 0.1 0.1 0 0.1 0.1 0.1 0.1 0.1 0 0.1 0.1-0.1 0.2-0.2 0 0 0.1 0 0.1 0 0.1 0 0.1-0.1 0.1 0 0.1-0.1 0-0.1 0-0.1 0-0.1 0 0 0.1 0 0.1 0 0.1-0.1 0-0.1 0.1 0 0.2 0 0.1-0.1 0.1-0.1 0 0 0.1-0.1 0 0 0.1 0 0.1-0.1 0-0.1 0-0.1 0.1 0 0.1 0 0.1 0 0.1 0 0.1 0 0.1-0.1 0.1-0.1 0.2 0.1 0.1 0 0.1 0.1 0 0 0.1 0 0.1 0 0.1 0.1 0.1 0.1 0 0.1 0 0 0.1 0.1 0.1 0.1 0 0.1 0 0 0.1 0 0.2 0.1 0.1 0 0.1 0.1 0 0 0.1 0.1-0.1 0.1 0 0 0.1-0.1 0.1 0 0.1-0.1 0.1-0.1 0-0.2 0.1-0.1 0.2-0.1 0 0 0.1-0.1 0.1-0.1 0.1-0.1 0.1-0.1 0.1 0 0.1-0.1 0-0.1 0-0.1 0.1-0.1 0 0 0.1-0.1 0.1-0.1 0 0 0.1 0 0.1-0.2 0.1-0.1 0 0 0.1 0 0.1-0.1 0.1 0 0.1-0.1 0-0.1 0-0.1 0.1-0.1 0-0.1 0-0.1 0-0.1 0-0.1 0 0 0.1-0.1 0-0.1 0-0.1 0.1-0.1 0-0.1 0.1 0 0.1-0.1 0.1-0.1 0.1-0.2 0-0.1 0.1-0.2 0.3-0.1 0.1-0.3 0.1-0.5 0.4-0.3 0.3-0.1 0-0.1 0-0.1 0.1-0.4 0.2-0.3 0.1-0.1 0-0.2 0.2-0.1 0.1 0 0.1 0 0.1-0.1 0.1-0.1 0.1 0 0.1-0.1 0.1-0.1 0.1-0.4 0.4-0.1 0.1-0.1 0.1-0.2 0.2 0-0.1-0.1 0-0.1 0 0 0.1 0 0.1-0.1 0.1-0.1 0-0.1 0.1-0.1 0-0.1 0.1-0.1 0.1-0.1-0.1-0.1 0-0.1 0-0.1 0-0.2 0-0.1 0-0.1 0.1-0.2 0-0.1 0.1 0 0.1-0.1 0-0.1 0.2-0.1 0 0 0.1-0.1 0 0 0.1 0 0.1-0.1 0.2 0 0.1-0.2 0.1 0 0.1-0.2 0-0.6 0.2-0.3 0.1 0.1-0.3 0-0.1 0-0.1 0-0.1-0.1-0.1-0.1-0.1-0.1-0.1-0.1 0-0.1 0-0.1 0.1-0.1-0.1 0.1-0.1 0.1-0.1 0.2-0.1 0.1-0.2 0.1-0.1 0-0.1 0.1 0 0-0.1 0.1 0-0.1-0.1 0.1 0 0.2 0 0.1-0.1 0.1 0 0-0.1 0.1 0 0.1 0 0.1-0.1 0 0.1 0.1 0 0 0.1 0.2 0 0.1 0 0.2-0.1 0.1-0.2 0.2-0.1 0-0.1 0.1 0 0.1-0.1 0.1 0 0-0.1 0-0.1 0.1 0 0.1 0 0.1-0.2 0.1 0 0.2-0.2 0.2 0 0-0.1 0.1 0 0-0.1 0.1 0 0.1 0 0.1-0.1 0.1 0 0.1-0.1 0.1 0 0.1 0 0.1-0.1 0.1 0 0.1-0.2 0.1 0 0-0.1 0-0.1 0.1 0 0-0.1 0.1-0.1 0.1-0.1 0.3-0.2 0.1 0 0-0.1 0.1-0.1 0.1-0.1 0.1-0.1 0.1 0 0.1 0 0.2-0.3-0.1 0 0 0.1-0.1 0.1-0.1 0 0.1-0.1 0.1-0.2 0.1-0.1 0.2 0 0.1-0.1 0-0.1 0.1 0 0-0.1 0.1 0 0.1-0.1 0.3-0.1 0.1-0.1 0.1 0 0.1-0.1 0.1 0 0.1-0.1 0.1-0.1 0-0.1 0.1 0 0.2-0.4 0-0.1 0.1 0 0.1 0 0-0.1 0-0.1 0.1 0 0.1-0.1 0.1-0.1 0-0.1 0.2-0.4 0.1-0.1 0-0.1 0-0.1 0.2-0.2 0-0.2 0.1-0.6 0-0.1 0-0.1 0.1-0.1 0.1-0.1 0-0.1 0.1-0.1 0-0.2 0-0.1 0.1-0.1 0-0.2 0-0.2 0.2 0 0.2 0 0.2-0.1 0.3-0.2 0-0.1 0.1 0 0.1 0 0-0.1 0.1-0.1 0.1-0.2 0-0.1 0.1-0.1 0-0.1 0-0.1 0.1 0 0.1-0.1 0.1 0-0.1-0.1 0.1-0.1 0-0.1 0-0.1 0.1-0.1 0-0.1 0-0.4 0-0.1 0-0.1 0-0.2 0-0.4 0-0.1 0-0.1 0.1-0.1 0.1-0.1 0-0.1 0.1 0 0-0.1z" id="NZL3406" name="West Coast">
 </path>
 <path d="M973.3 112.5l0.1 0.2-0.1 0.1 0 0.1-0.1 0.1 0 0.1-0.1 0.1 0 0.1-0.1 0.1 0 0.8 0 0.1 0.1 0 0.1 0.1 0 0.1 0.1 0.3 0 0.1 0.1 0 0.1 0 0 0.1 0.2 0.2 0.2-0.1 0.1 0.1 0.1 0.1 0 0.1 0.1 0.3 0.1 0.2 0.1 0.2 0.1 0.1 0.1 0 0.2 0 0.2 0 0.1 0 0.1 0 0 0.1 0 0.1 0 0.1 0 0.1 0.1 0.1 0.1 0 0.2-0.1 0.5-0.4 0.1-0.1 0.1 0 0.1 0 0.2-0.1 0.5 0.2 0.3 0.1 0.1 0 0 0.1-0.2 0.4-0.3 0.3-0.1 0.3-0.1 0.3-0.1 0.1 0 0.1 0.1 0.1 0 0.1-0.1 0.1 0 0.1 0 0.1-0.1 0.1 0 0.1-0.1 0 0 0.1 0 0.1-0.1 0 0 0.1-0.1 0.1-0.1 0 0 0.1 0.1 0-0.1 0.1-0.1 0.1-0.1 0 0 0.1 0.1 0 0 0.1 0.1 0 0-0.1 0.1 0.1 0.1 0.1-0.1 0-0.1 0.1-0.1 0 0 0.1-0.1 0 0 0.2-0.2 0 0 0.1 0.1 0 0.1-0.1 0.1 0 0.1-0.1 0.1-0.1 0-0.1 0.1 0 0-0.1 0.1 0.1 0 0.3-0.1 0-0.1 0-0.1 0.1-0.6 0.1-0.2 0.1-0.2 0.1-0.2 0.3 0 0.1 0 0.1-0.1 0.1 0 0.1 0 0.1-0.1 0.1-0.1 0-0.1 0.1-0.1 0 0 0.1-0.1 0.1-0.4 0.3-0.1 0.1-0.1 0.3 0.1 0.1-0.1 0-0.1 0.1-0.1 0-0.1 0.2-0.1 0-0.1 0.1-0.1 0.1-0.1-0.1-0.1 0 0 0.1-0.2 0.1 0.1 0-0.1 0.1-0.1-0.1-0.1 0 0 0.1-0.1 0-0.1 0-0.1 0-0.1 0 0 0.1-0.1 0-0.1 0 0-0.1 0-0.1 0-0.2 0.1-0.1 0-0.1 0-0.1-0.1-0.1 0-0.1 0-0.1-0.1-0.1 0-0.1 0-0.2 0.1-0.1 0-0.1 0-0.2-0.1-0.3 0-0.1 0-0.1-0.1-0.1 0-0.2-0.1-0.1 0-0.1 0-0.1 0-0.1 0-0.1-0.1-0.1-0.1-0.1 0-0.2 0-0.1 0-0.1 0-0.2 0-0.2 0.2-0.3 0.2-0.5 0.1-0.1 0-0.2-0.3-0.3-0.1-0.1-0.1 0.1-0.3 0.5-0.2 0-0.1 0-0.1 0 0-0.2-0.2-0.2-0.1-0.2 0-0.1-0.5 0.3-0.2 0-0.1 0-0.2-0.1 0-0.1 0-0.1-0.1-0.2 0-0.2-0.1-0.1 0.1-0.3 0-0.1-0.1-0.1-0.1 0-0.1-0.1 0-0.2-0.1-0.1 0-0.1 0.1-0.2 0-0.3 0-0.2 0.1-0.2 0-0.2 0.1-0.2 0.1-0.1 0.1-0.1 0.1 0 0.3-0.1 0.6-0.2 0.2 0 0-0.1 0.2-0.1 0-0.1 0.1-0.2 0-0.1 0-0.1 0.1 0 0-0.1 0.1 0 0.1-0.2 0.1 0 0-0.1 0.1-0.1 0.2 0 0.1-0.1 0.1 0 0.2 0 0.1 0 0.1 0 0.1 0 0.1 0.1 0.1-0.1 0.1-0.1 0.1 0 0.1-0.1 0.1 0 0.1-0.1 0-0.1 0-0.1 0.1 0 0.1 0 0 0.1z" id="NZL3407" name="Otago">
 </path>
 <path d="M967.1 125.6l-0.1-0.1 0.1 0 0-0.1 0.1 0 0 0.1-0.1 0.1z m0.7-1.9l-0.1 0 0-0.1 0.1 0 0.1 0 0 0.1-0.1 0z m2.5 0l-0.1 0 0-0.1 0.1 0 0-0.1 0.1 0.1-0.1 0.1z m-1.6 0.6l0.1 0 0.1 0.1 0.1 0 0.1 0 0 0.1-0.1 0 0 0.1 0.1 0 0.1-0.1 0.1 0 0.1 0.1 0 0.2-0.1 0-0.1 0 0.2 0.1 0 0.1-0.1 0 0-0.1-0.1 0 0 0.1-0.1 0-0.2 0-0.2 0.1-0.2 0.2-0.1 0 0 0.1-0.1 0 0-0.1-0.1 0-0.1 0 0-0.1-0.1 0-0.1 0 0 0.2 0 0.1-0.1 0.1-0.1 0-0.1 0.1-0.1 0-0.1 0-0.1 0 0-0.1 0-0.1 0.1-0.1 0-0.1 0.1 0 0.1-0.1 0-0.1 0-0.1 0-0.1 0.1-0.1 0.1-0.1 0.1 0.1 0.1-0.1-0.1-0.1 0-0.1 0-0.1 0.1 0 0.1 0 0-0.1 0-0.1 0.1 0-0.1-0.1 0-0.1-0.1-0.2 0-0.1 0-0.1 0-0.1 0-0.1 0.1-0.1 0.1 0 0.1 0 0 0.1 0.1-0.1 0.2 0.1 0.1 0.1 0.2 0.3 0.1 0.1 0.1 0 0 0.1 0.1 0 0 0.1-0.1 0 0.1 0.1-0.1 0-0.2 0 0-0.1-0.2 0 0 0.1 0 0.1z m-0.4-1.9l-0.1 0 0-0.1 0.1 0 0 0.1z m-3.5-1.5l0.1 0 0 0.1-0.1 0.1 0-0.1 0-0.1z m-0.2-0.1l-0.1 0 0-0.1 0.1 0 0 0.1z m0.1-0.3l-0.1 0 0.1-0.1 0 0.1z m0.2-0.9l0.1-0.1 0.1 0 0.1 0-0.3 0.1z m-0.4 0l-0.1 0 0-0.1 0.1 0 0.1 0-0.1 0.1z m0.8-0.2l0.1 0 0.1 0 0 0.1-0.1 0-0.1 0 0-0.1z m-0.1-0.3l0 0.1 0 0.1-0.1 0.1-0.1 0.1 0-0.1-0.1 0.1 0-0.1 0-0.1 0-0.1-0.1-0.1-0.2 0.2-0.1 0.1 0-0.1 0.1-0.1 0-0.1 0.1-0.1 0.1 0 0.2 0 0.1 0 0.1 0.1z m0.8-1.4l-0.1 0-0.1 0-0.1-0.1-0.1 0 0-0.1 0-0.1 0.2-0.3 0 0.1 0 0.1 0.1 0.1 0.1 0.3z m6 5.3l-0.1 0 0 0.1 0 0.1-0.1 0-0.1 0 0-0.1-0.1 0 0.1 0.1-0.1 0 0 0.1-0.1 0-0.1-0.1-0.1 0-0.1 0-0.1-0.1 0-0.2-0.1-0.1-0.1 0-0.3 0.1-0.1 0 0.1-0.1-0.1-0.1-0.1 0 0 0.1 0.1 0 0 0.1-0.1 0 0.1 0.1-0.2 0-0.5 0 0.1-0.1 0-0.1-0.2-0.1 0 0.1 0 0.1 0.1 0.1-0.1 0-0.1-0.1-0.1-0.1-0.1-0.1 0-0.1 0.1 0 0.1 0 0 0.1 0.1-0.2 0.1-0.1 0-0.1-0.1-0.1-0.1 0 0.1 0.1-0.1 0.1 0 0.1-0.1 0 0-0.1-0.1-0.2-0.1-0.3-0.1 0-0.1 0-0.2 0-0.1 0 0 0.1-0.1 0-0.1 0-0.1 0 0 0.1-0.1 0-0.1 0-0.1 0 0-0.1-0.1 0 0-0.1-0.1 0 0-0.1 0.1 0 0-0.1-0.2-0.2 0-0.1 0-0.1-0.1 0-0.1 0 0-0.1-0.2 0 0-0.1-0.3 0-0.1 0 0 0.1 0 0.1 0 0.1-0.1 0.1-0.1 0-0.1 0-0.1 0.1-0.1 0-0.1 0-0.1 0-0.1 0-0.2-0.1-0.1 0-0.2-0.1-0.4 0-0.2 0-0.2-0.1 0-0.1 0-0.1 0.1-0.1 0.1-0.1 0.1-0.1 0.1-0.2 0-0.1 0.1 0 0.2-0.1 0-0.1-0.2 0.1-0.1 0-0.1 0.1 0 0.1 0 0.1-0.1 0.1-0.1 0 0.1-0.1-0.1-0.1 0 0.2-0.1 0-0.2 0.1 0-0.1 0-0.1 0.1 0 0-0.1 0-0.1 0.1-0.1 0.2 0 0.1-0.1 0-0.1-0.1 0.1-0.1 0-0.1 0 0-0.1 0.2-0.1 0-0.1 0-0.1-0.1 0.1-0.1 0.1 0 0.1-0.1 0.1-0.1 0.1-0.1 0-0.1 0-0.1 0.1-0.1 0.1 0-0.1 0-0.1 0-0.1 0-0.1 0-0.3 0-0.1 0-0.1 0.2 0 0.2 0 0 0.1 0.1-0.1 0.1 0 0.1 0 0.1 0 0.2-0.1 0.1 0 0.1 0 0-0.1 0.1 0 0.1-0.1 0.1 0 0-0.1-0.1 0-0.2 0-0.3 0.1-0.1 0 0.1-0.1 0-0.1 0.1 0 0.1-0.1-0.2 0-0.1 0 0-0.1 0-0.1 0.1 0 0-0.1 0.1 0 0.1 0 0.1-0.1 0.2 0.1 0.1-0.1-0.1 0-0.1 0 0.2-0.1 0.1 0 0-0.1-0.3 0.2-0.1 0-0.2 0-0.1 0.1-0.1 0-0.1 0-0.1-0.1 0.1-0.3 0.1-0.2 0-0.1 0.1 0 0.2 0 0.1 0.1 0.1 0 0-0.1 0-0.1-0.1 0 0 0.1-0.1 0-0.1-0.1-0.1-0.1 0-0.1 0.1 0 0.1-0.1 0-0.1 0.1 0 0 0.1 0.2 0.1-0.1 0 0 0.1 0.1 0 0.1 0 0.1 0 0 0.1 0 0.1-0.1 0.1 0.1 0 0.1 0 0-0.1 0-0.1 0.1 0.1 0.1 0 0 0.1 0.1 0.2 0-0.1-0.1-0.2-0.3-0.3 0-0.1 0.1 0 0.3-0.1 0.1 0.1 0 0.1 0.1 0 0.1 0 0-0.1-0.1 0-0.1 0 0-0.1 0-0.1-0.1 0.1-0.1 0-0.2 0-0.1 0 0-0.1 0-0.1-0.1-0.1 0-0.2 0-0.1 0.1 0 0.1 0 0.1 0.2 0.1 0 0.1 0-0.1-0.1-0.1-0.1-0.1-0.1-0.1 0 0.1-0.2 0.1 0 0.1 0 0.1 0.2 0.1 0 0.1 0 0-0.1-0.2 0 0-0.1-0.1 0 0-0.1 0-0.1 0.1-0.1 0.1 0.1 0.1 0 0.1 0.1 0.1 0-0.3-0.2-0.1 0 0-0.1 0.1-0.1 0.1-0.1 0.1 0 0.1 0-0.1-0.1 0.3-0.1 0.1 0.1 0 0.1 0 0.1 0 0.1 0.1 0 0 0.1 0 0.1 0.1 0 0-0.1 0-0.1-0.1-0.1 0-0.1 0-0.1-0.1-0.1 0-0.1 0.1-0.1 0-0.1 0.1 0 0.1 0.1 0 0.1 0 0.1 0 0.1 0.1 0 0-0.1 0-0.1 0-0.1 0-0.1-0.1-0.1 0-0.1 0.1 0 0.1 0.1 0.1 0-0.1-0.1-0.1-0.1 0.1-0.1 0.2 0 0-0.1 0.1-0.1 0.1-0.1 0.1 0 0.2 0.1 0.1 0.1 0.1 0.2 0-0.1 0-0.1-0.1-0.1-0.1 0 0-0.1 0-0.1 0-0.2-0.1 0 0-0.1 0.1-0.1 0.2-0.2 0.1-0.1 0.1-0.1 0.1-0.1-0.1-0.1 0.3 0 0.1-0.1 0.1-0.1 0.1 0 0.1 0 0.1 0.1 0.1 0.1 0.1 0.1 0 0.1 0 0.1 0 0.1-0.1 0.3-0.1 0-0.1 0.1-0.1 0.1-0.1 0.2 0 0.2-0.1 0.2 0 0.2 0 0.3-0.1 0.2 0 0.1 0.1 0.1 0 0.2 0.1 0.1 0.1 0 0.1 0.1 0 0.1-0.1 0.3 0.1 0.1 0 0.2 0.1 0.2 0 0.1 0 0.1 0.2 0.1 0.1 0 0.2 0 0.5-0.3 0 0.1 0.1 0.2 0.2 0.2 0 0.2 0.1 0 0.1 0 0.2 0 0.3-0.5 0.1-0.1 0.1 0.1 0.3 0.3 0 0.2-0.1 0.1-0.2 0.5-0.2 0.3 0 0.2 0 0.2 0 0.1 0 0.1 0 0.2 0.1 0.1 0.1 0.1 0 0.1 0 0.1 0 0.1 0 0.1 0.1 0.1 0 0.2 0.1 0.1 0 0.1 0 0.1 0.1 0.3 0 0.2 0 0.1-0.1 0.1 0 0.2 0 0.1 0.1 0.1 0 0.1 0 0.1 0.1 0.1 0 0.1 0 0.1-0.1 0.1 0 0.2z m-1.9-0.2l0 0.1 0.1 0 0-0.1-0.1 0z" id="NZL3408" name="Southland">
 </path>
 <path d="M990.5 85.3l-0.1-0.1 0.1 0 0 0.1z m0 0l0.1 0 0 0.1-0.1 0 0-0.1z m0.4 2.7l-0.1 0 0 0.1-0.1 0.1 0 0.1 0 0.1-0.1 0-0.1 0 0 0.1 0.1 0.1 0 0.1 0 0.1 0 0.1 0.1 0.1 0 0.1 0.1 0.3 0.1 0.3 0.1 0.1 0 0.1-0.1 0.1 0.1 0.1 0 0.1 0.1 0 0.1 0 0 0.1 0.1 0.1 0.1 0.1 0.2 0 0.1 0.1 0 0.1 0 0.1 0.1 0.1 0 0.2 0.1 0.1 0 0.1 0.5 0.2 0 0.1 0.1 0.1-0.1 0.3-0.1 0.1-0.1-0.1-0.1 0.1 0 0.1-0.1 0.1-0.1-0.1 0-0.1 0.1 0 0-0.1 0-0.1-0.1 0-0.1 0.1-0.1 0-0.1 0-0.1-0.1-0.1 0-0.1 0 0 0.1-0.1 0.1 0 0.1 0.2 0.1 0.2 0 0 0.1 0 0.2 0 0.1 0.1 0.1 0 0.2-0.1 0-0.2 0-0.1 0 0 0.2 0.1 0 0 0.2 0.1 0.1 0.1 0.1 0.1 0 0-0.1 0.1 0.1 0 0.3-0.1 0.2-0.1 0.2-0.1 0-0.2 0.1-0.2-0.1-0.1 0.1-0.1 0.1-0.1 0 0 0.1-0.1 0 0 0.1 0 0.1-0.1 0-0.1 0.1-0.1 0-0.2 0-0.3-0.1 0-0.2 0.1-0.1 0-0.1 0.1-0.2-0.1-0.1 0-0.1 0.1-0.1 0-0.1 0-0.1-0.1 0-0.1 0-0.1 0 0.1-0.1 0-0.1 0-0.1-0.1 0 0-0.1 0.1-0.1 0-0.1-0.1-0.1-0.1-0.1 0.1-0.1 0.1-0.2 0-0.1 0.1-0.1 0-0.1-0.1 0-0.1 0-0.1 0-0.1-0.1-0.1 0-0.2 0.1-0.1 0 0-0.1-0.1 0.1-0.1 0.1-0.1 0.1-0.1 0-0.1 0-0.1 0-0.1 0-0.1 0-0.1 0.1-0.1 0-0.1 0 0.1 0.1-0.1 0.1 0 0.1-0.1 0-0.1 0.1-0.1-0.1-0.1 0 0-0.1-0.1 0.1-0.2-0.1-0.2-0.1 0-0.1 0-0.1 0.1-0.6 0-0.2 0.1-0.2 0-0.1 0-0.2 0-0.2 0.1-0.1 0-0.1-0.1-0.1 0-0.1 0.1 0 0.1 0 0 0.1 0.1 0 0.1 0 0 0.1 0.1-0.1-0.1 0 0.1-0.1 0.1 0 0-0.1-0.1-0.1-0.1 0 0 0.1-0.1 0 0-0.1 0-0.1 0.1 0 0.1-0.1 0-0.1 0-0.1-0.1 0 0 0.1 0 0.1-0.1 0-0.1-0.1 0.1-0.3 0-0.2 0.2-0.1 0.1 0 0.2 0-0.1-0.1 0.1 0 0-0.1-0.2 0 0 0.1-0.1 0-0.1 0-0.1-0.7-0.2-0.4 0-0.2 0-0.1 0.1 0 0.1-0.1 0-0.1 0.1-0.1-0.1 0-0.1 0.1-0.1 0.1-0.1 0 0-0.1-0.1-0.1 0.2 0 0.2-0.1 0.2-0.1 0.3-0.1 0.3-0.1 0.3 0 0-0.3 0.1-0.1 0-0.2 0.1 0.1 0.2-0.1 0 0.1 0 0.1-0.1 0.2 0.1 0.1 0 0.1 0.1 0.1 0.1 0.1 0.1 0 0.1-0.1 0.1 0 0.1 0 0-0.1 0.1 0.1 0-0.1 0-0.1-0.1-0.1 0-0.1 0-0.2-0.1-0.3-0.1-0.1-0.1-0.1 0-0.1 0.1 0 0.1 0 0-0.1-0.1 0 0-0.1 0.1 0 0.1-0.1-0.1-0.1 0 0.1-0.1-0.1 0.1-0.1-0.1-0.1 0-0.1 0.1 0-0.1-0.1 0-0.1-0.1 0 0-0.1-0.1 0-0.1 0 0-0.1-0.1-0.1 0-0.1 0.1-0.1 0.1 0 0.1 0 0 0.1 0.1 0.1 0.1 0 0-0.1 0.1 0.1 0 0.1 0 0.1 0 0.1 0.1 0 0 0.1 0.1 0.1-0.1 0-0.1 0 0.1 0.1 0.1 0 0 0.1 0 0.1 0.2 0-0.1-0.1 0.1 0 0.1 0 0.1 0 0-0.1 0.1 0 0 0.1 0.1 0 0 0.1-0.1 0-0.1 0.1-0.1 0.1-0.1 0.1 0 0.1 0.1 0.1 0-0.1 0.1 0 0-0.1 0.2 0 0 0.1 0 0.1 0.1 0 0 0.1 0 0.2 0 0.1 0 0.1 0 0.1 0.1-0.1 0 0.1 0 0.1-0.1 0.1 0 0.1 0.1 0 0 0.1-0.1 0 0.1 0.1 0 0.1-0.1 0 0.1 0.1 0.1 0 0 0.1 0 0.1 0 0.1 0 0.1z m-1-0.5l0.1 0.1 0-0.1-0.1 0z" id="NZL5468" name="Waikato">
 </path>
 <path d="M988 100.7l-0.1 0 0.1-0.1 0-0.1 0.1 0 0 0.1-0.1 0.1z m3.8-0.3l-0.1 0.2 0 0.2 0 0.1-0.2 0 0 0.1-0.1 0.1 0 0.1-0.1 0.3-0.1 0.2-0.2 0.4-0.5 0.3-0.1 0.1-0.1 0.1-0.2 0.1-0.6 0.5-0.2 0.1-0.1 0.1-0.1 0-0.2 0.1 0-0.1-0.1-0.1 0-0.1 0-0.1 0-0.1 0-0.2 0-0.1-0.4-0.1-0.1 0-0.1 0-0.1 0.2-0.1 0-0.1-0.1 0-0.1 0-0.1 0-0.1 0-0.1 0.1-0.2-0.1-0.1 0-0.1-0.1 0.1-0.1 0-0.1 0.1 0 0.1 0.1 0 0.1 0 0 0.1-0.1 0.1-0.1-0.1 0 0.1-0.1 0-0.1 0-0.1-0.1-0.1-0.1-0.1-0.1 0.1-0.1 0.1 0 0.1-0.1 0.1-0.1 0.1-0.1 0-0.1 0.1-0.1 0.1 0 0 0.1 0.1-0.1 0-0.1-0.1-0.1 0.1 0 0-0.1 0.1 0 0-0.1 0.1 0 0-0.1 0-0.1 0.1-0.2 0.2-0.2 0-0.1 0.1 0 0.3-0.1 0.4 0 0.2-0.1 0.2 0.1 0.5 0 0.4-0.1 0.5-0.1 0.4 0.1 0.3 0 0.1 0.1 0 0.1z" id="NZL5469" name="Wellington">
 </path>
 <path d="M5.9 113.9l0-0.1-0.1 0 0-0.1 0.1-0.1-0.1-0.1 0.1 0 0-0.1 0.1 0 0.1 0.1 0 0.1 0.1 0-0.1 0.1-0.1 0 0 0.1-0.1 0.1z m-0.5-2.3l0.6-0.1-0.1 0.1 0 0.1-0.1-0.1-0.1 0.1-0.1 0.1-0.2 0.2 0-0.1 0.1-0.1 0-0.1-0.1 0 0-0.1z m-0.1 0l-0.1 0-0.2 0 0 0.1 0 0.1 0.3 0-0.2 0.2 0.1 0.2 0 0.1 0 0.1 0.1 0 0.1-0.1 0 0.1 0 0.1 0.1 0.1 0.1 0 0 0.1 0 0.1-0.2 0-0.1 0-0.1 0.1-0.1 0.1-0.1 0-0.1 0-0.1 0 0-0.1-0.1-0.1 0-0.1-0.1 0 0-0.1 0.1 0 0.2-0.2 0.1-0.1 0-0.1-0.1-0.3-0.1 0 0-0.1-0.1 0-0.1 0-0.1 0 0.1 0.1-0.1 0-0.1 0-0.2 0-0.1 0 0-0.1 0.1 0 0-0.1 0.1 0 0-0.1 0.1 0.1 0.3-0.1 0.1-0.1 0-0.1 0.1 0 0 0.1 0.1 0 0.1 0 0.2 0.1z m0.1 0.4l0 0.1-0.1-0.1 0.1 0z" id="NZL5470" name="Chatham Islands Territory">
 </path>
 <path d="M1.3 60.6l0 0.1-0.1 0 0 0.1-0.1-0.1-0.1-0.1 0-0.1 0.1 0.1 0.1 0 0.1 0z" id="NZL5471" name="Kermadec Islands">
 </path>
 <g>
 </g>
 <g>
 </g>
 <path d="M980.2 76.8l0.1 0 0 0.1-0.1 0 0-0.1z" id="NZL5476" name="Three Kings Islands">
 </path>
 <path d="M998.9 136.1l-0.1 0-0.1 0 0-0.1-0.1-0.1 0.1-0.1 0.1-0.1 0-0.1 0.1 0 0.1 0.1 0 0.1 0 0.1 0 0.1 0 0.1-0.1 0z" id="NZL5477" name="Antipodes Islands">
 </path>
 <path d="M972.2 148.6l0 0.1 0 0.1-0.1 0.1-0.1 0.1-0.2 0 0-0.1-0.1 0 0-0.1-0.1 0-0.1 0 0-0.1 0.1 0 0.1 0 0.1 0 0-0.1 0.1-0.1 0-0.1 0.1 0 0.1 0 0 0.1 0.1 0.1z" id="NZL5478" name="Campbell Islands">
 </path>
 <path d="M963 141.2l-0.1 0 0-0.1 0.1 0 0 0.1z m0 0l0.1 0 0.2-0.1 0.1 0 0.1 0 0.1 0.1 0.1 0-0.1 0.1-0.1 0-0.1 0-0.4 0 0-0.1z m0.6-0.9l0.1 0 0 0.1-0.1 0-0.1 0 0.1 0.1 0 0.1 0.1 0 0 0.1 0 0.1 0.1 0.1 0 0.1-0.1 0.1-0.1-0.1-0.1 0-0.1-0.1 0-0.1-0.1 0.1 0-0.1 0-0.1-0.1-0.1 0 0.1 0 0.1-0.1-0.1 0 0.1 0.1 0.1-0.1 0 0 0.1-0.1 0-0.1 0-0.1 0.1 0-0.3 0.1-0.2 0.3-0.2 0.1-0.1 0-0.1 0-0.2 0.1-0.1 0-0.1 0-0.1 0-0.1 0.1 0 0.1 0.1 0.1-0.1 0 0.1 0.1 0 0.1 0 0 0.1-0.1 0 0 0.1 0 0.1-0.1 0-0.1 0 0 0.1 0.1 0.1-0.1 0 0 0.1z" id="NZL5479" name="Auckland Islands">
 </path>
 <path d="M964.8 128.9l0.1 0.1-0.1 0 0-0.1z m0 0l-0.1 0 0.1-0.2 0 0.1 0 0.1z" id="NZL5480" name="The Snares">
 </path>
 <circle cx="968.9" cy="121.7" id="0">
 </circle>
 <circle cx="989.4" cy="97.9" id="1">
 </circle>
 <circle cx="987.3" cy="86.4" id="2">
 </circle>
</svg>